<svg version="1.1" xmlns="http://www.w3.org/2000/svg" viewBox="0 0 1272.59375 448" width="1272.59375" height="448">
  <!-- svg-source:excalidraw -->
  
  <defs>
    <style class="style-fonts">
      @font-face {
        font-family: "Virgil";
        src: url("https://excalidraw.com/Virgil.woff2");
      }
      @font-face {
        font-family: "Cascadia";
        src: url("https://excalidraw.com/Cascadia.woff2");
      }
    </style>
    
  </defs>
  <rect x="0" y="0" width="1272.59375" height="448" fill="#ffffff"></rect><g stroke-linecap="round" transform="translate(28.59375 21) rotate(0 111 48)"><path d="M0 0 C51.68 0, 103.36 0, 222 0 M0 0 C53.94 0, 107.87 0, 222 0 M222 0 C222 29.28, 222 58.57, 222 96 M222 0 C222 26.09, 222 52.18, 222 96 M222 96 C160.61 96, 99.22 96, 0 96 M222 96 C145.07 96, 68.13 96, 0 96 M0 96 C0 64.58, 0 33.15, 0 0 M0 96 C0 76.7, 0 57.4, 0 0" stroke="#1e1e1e" stroke-width="1" fill="none"></path></g><g transform="translate(69.28125 57) rotate(0 70.3125 12)"><text x="70.3125" y="0" font-family="Cascadia, Segoe UI Emoji" font-size="20px" fill="#1e1e1e" text-anchor="middle" style="white-space: pre;" direction="ltr" dominant-baseline="text-before-edge">ToDo service</text></g><g stroke-linecap="round" transform="translate(462.59375 21) rotate(0 111 48)"><path d="M0 0 C44.65 0, 89.3 0, 222 0 M0 0 C85.37 0, 170.74 0, 222 0 M222 0 C222 20.17, 222 40.35, 222 96 M222 0 C222 37.16, 222 74.31, 222 96 M222 96 C174.46 96, 126.92 96, 0 96 M222 96 C165.74 96, 109.48 96, 0 96 M0 96 C0 65.08, 0 34.16, 0 0 M0 96 C0 59.9, 0 23.79, 0 0" stroke="#1e1e1e" stroke-width="1" fill="none"></path></g><g transform="translate(503.28125 57) rotate(0 70.3125 12)"><text x="70.3125" y="0" font-family="Cascadia, Segoe UI Emoji" font-size="20px" fill="#1e1e1e" text-anchor="middle" style="white-space: pre;" direction="ltr" dominant-baseline="text-before-edge">Auth service</text></g><g stroke-linecap="round"><g transform="translate(251.59375 68) rotate(0 104.5 0)"><path d="M0 0 C59.15 0, 118.31 0, 209 0 M0 0 C65.69 0, 131.38 0, 209 0" stroke="#1e1e1e" stroke-width="1" fill="none"></path></g><g transform="translate(251.59375 68) rotate(0 104.5 0)"><path d="M0 0 L13.59 -6.34 L13.59 6.34 L0 0" stroke="none" stroke-width="0" fill="#1e1e1e" fill-rule="evenodd"></path><path d="M0 0 C3.85 -1.79, 7.7 -3.59, 13.59 -6.34 M0 0 C4.27 -1.99, 8.55 -3.98, 13.59 -6.34 M13.59 -6.34 C13.59 -3.72, 13.59 -1.09, 13.59 6.34 M13.59 -6.34 C13.59 -1.96, 13.59 2.42, 13.59 6.34 M13.59 6.34 C9.15 4.26, 4.7 2.19, 0 0 M13.59 6.34 C10.41 4.85, 7.23 3.37, 0 0 M0 0 C0 0, 0 0, 0 0 M0 0 C0 0, 0 0, 0 0" stroke="#1e1e1e" stroke-width="1" fill="none"></path></g><g transform="translate(251.59375 68) rotate(0 104.5 0)"><path d="M209 0 L195.41 6.34 L195.41 -6.34 L209 0" stroke="none" stroke-width="0" fill="#1e1e1e" fill-rule="evenodd"></path><path d="M209 0 C205.15 1.79, 201.3 3.59, 195.41 6.34 M209 0 C204.73 1.99, 200.45 3.98, 195.41 6.34 M195.41 6.34 C195.41 3.72, 195.41 1.09, 195.41 -6.34 M195.41 6.34 C195.41 1.96, 195.41 -2.42, 195.41 -6.34 M195.41 -6.34 C199.85 -4.26, 204.3 -2.19, 209 0 M195.41 -6.34 C198.59 -4.85, 201.77 -3.37, 209 0 M209 0 C209 0, 209 0, 209 0 M209 0 C209 0, 209 0, 209 0" stroke="#1e1e1e" stroke-width="1" fill="none"></path></g></g><mask></mask><g transform="translate(330.59375 76) rotate(0 23.4375 12)"><text x="0" y="0" font-family="Cascadia, Segoe UI Emoji" font-size="20px" fill="#2f9e44" text-anchor="start" style="white-space: pre;" direction="ltr" dominant-baseline="text-before-edge">gRPC</text></g><g stroke-linecap="round"><g transform="translate(96.63596046561997 295.3028482311161) rotate(0 43.906602948166096 48.19277956684209)" fill-rule="evenodd"><path d="M0.74 -0.54 L-0.59 97.22 L1.87 99.16 L21.72 103.29 L45.83 105.79 L72.75 103.35 L80.21 102.77 L88.16 95.64 L88.76 -0.55 L87.34 0.16 L84.03 -3.43 L76.22 -5.05 L42.47 -10.14 L11.55 -4.05 L4.29 -2.94 L0.31 1.63" stroke="none" stroke-width="0" fill="#228be6" fill-rule="evenodd"></path><path d="M-1.04 -0.47 C-1.24 14.18, -0.45 71.32, -0.43 87.19 C-0.41 103.05, -1.83 92.75, -0.9 94.73 C0.02 96.7, 1.41 97.56, 5.14 99.03 C8.88 100.5, 14.46 102.61, 21.5 103.55 C28.53 104.5, 38.9 104.88, 47.34 104.71 C55.79 104.54, 65.68 103.67, 72.16 102.55 C78.65 101.42, 83.63 99.27, 86.25 97.96 C88.87 96.65, 87.43 96.65, 87.89 94.71 C88.35 92.78, 89.17 101.08, 89.01 86.35 C88.86 71.63, 87.37 20.94, 86.97 6.38 C86.58 -8.17, 87.53 0.84, 86.65 -1 C85.76 -2.84, 84.36 -3.6, 81.69 -4.66 C79.02 -5.71, 77.16 -6.75, 70.61 -7.34 C64.06 -7.92, 50.64 -8.06, 42.41 -8.19 C34.18 -8.31, 27.77 -9.02, 21.22 -8.08 C14.66 -7.15, 6.45 -3.79, 3.1 -2.59 C-0.25 -1.39, 1.5 -1.24, 1.12 -0.89 C0.75 -0.55, 0.93 -0.63, 0.85 -0.53 M0.62 -1.76 C0.74 12.65, 1.75 69.46, 1.9 85.66 C2.05 101.86, 0.87 93.13, 1.51 95.45 C2.14 97.77, 2.51 98.18, 5.7 99.58 C8.89 100.99, 14.05 103.21, 20.65 103.89 C27.24 104.56, 36.62 103.51, 45.29 103.63 C53.95 103.76, 65.97 105.7, 72.65 104.63 C79.33 103.55, 83.1 98.52, 85.36 97.21 C87.62 95.9, 86.01 98.11, 86.21 96.76 C86.41 95.41, 86.47 104.06, 86.57 89.08 C86.66 74.11, 86.46 22.08, 86.78 6.93 C87.09 -8.21, 89.27 0.3, 88.45 -1.77 C87.63 -3.85, 84.88 -4.54, 81.85 -5.53 C78.82 -6.51, 76.83 -7.24, 70.28 -7.69 C63.74 -8.15, 50.56 -8.4, 42.58 -8.28 C34.6 -8.16, 28.65 -7.51, 22.41 -6.96 C16.17 -6.4, 8.81 -5.92, 5.15 -4.92 C1.5 -3.93, 1.33 -1.7, 0.45 -0.97 C-0.42 -0.24, -0.27 -0.96, -0.09 -0.55" stroke="#0a11d3" stroke-width="1" fill="none"></path></g></g><mask></mask><g stroke-linecap="round"><g transform="translate(97.32332205511739 360.5929762619037) rotate(0 43.78622702991731 4.431208538228702)"><path d="M-0.72 1.13 C-0.31 1.68, -0.87 1.95, 1.41 2.78 C3.69 3.61, 8.71 5.09, 12.96 6.13 C17.21 7.18, 21.22 8.53, 26.89 9.06 C32.56 9.58, 39.68 9.51, 46.99 9.28 C54.3 9.04, 64.32 8.73, 70.74 7.63 C77.17 6.54, 82.62 4.13, 85.55 2.71 C88.47 1.29, 87.69 -0.21, 88.29 -0.89 M1.1 0.68 C1.97 1.37, 1.74 2.69, 3.64 3.73 C5.54 4.76, 9.1 5.83, 12.51 6.9 C15.92 7.96, 18.56 9.64, 24.1 10.1 C29.63 10.56, 37.72 10.25, 45.71 9.63 C53.69 9.01, 65.23 7.19, 72 6.36 C78.77 5.52, 83.78 5.92, 86.33 4.61 C88.87 3.31, 86.99 -0.76, 87.26 -1.46" stroke="#0a11d3" stroke-width="1" fill="none"></path></g></g><mask></mask><g stroke-linecap="round"><g transform="translate(96.22958054305582 327.5188216998319) rotate(0 44.11747841274507 3.9975731678588033)"><path d="M-0.92 -1.12 C-0.31 -0.84, 0.51 1.49, 2.92 2.85 C5.33 4.22, 9.68 6.03, 13.54 7.07 C17.4 8.11, 20.61 8.79, 26.07 9.1 C31.54 9.4, 38.8 9.19, 46.33 8.9 C53.87 8.6, 64.8 8.28, 71.29 7.3 C77.78 6.33, 82.3 4.5, 85.28 3.05 C88.25 1.61, 88.81 -0.64, 89.15 -1.36 M0.8 0.9 C1.37 1.81, 0.19 2.6, 2.29 3.84 C4.39 5.08, 9.36 7.28, 13.39 8.33 C17.43 9.38, 20.68 10.04, 26.51 10.16 C32.34 10.28, 40.65 9.16, 48.37 9.05 C56.09 8.94, 66.58 10.17, 72.84 9.51 C79.1 8.86, 83.29 7.08, 85.91 5.14 C88.53 3.19, 88.09 -1.41, 88.57 -2.18" stroke="#0a11d3" stroke-width="1" fill="none"></path></g></g><mask></mask><g stroke-linecap="round" transform="translate(95.10875785689416 287.27815200401943) rotate(0 43.825373054270926 8.863351988406833)"><path d="M42.19 0.27 C51.22 0.06, 62.84 0.86, 70.35 1.91 C77.87 2.96, 85.02 4.62, 87.28 6.59 C89.54 8.55, 88.42 11.81, 83.92 13.68 C79.43 15.54, 69.14 17.07, 60.3 17.79 C51.46 18.5, 39.61 18.52, 30.89 17.97 C22.17 17.42, 12.92 16.02, 7.96 14.49 C3.01 12.96, 0.1 10.78, 1.17 8.79 C2.23 6.8, 6.77 3.97, 14.37 2.58 C21.98 1.18, 40.29 0.68, 46.82 0.42 C53.36 0.15, 53.44 0.83, 53.61 1 M53 -0.11 C61.68 0.28, 72.52 1.45, 78.4 3.09 C84.29 4.73, 88.81 7.77, 88.31 9.73 C87.8 11.68, 81.6 13.31, 75.38 14.8 C69.16 16.29, 59.97 18.4, 50.99 18.66 C42.01 18.92, 29.45 17.71, 21.51 16.36 C13.57 15, 6.21 12.37, 3.35 10.51 C0.49 8.64, 1.15 6.59, 4.35 5.17 C7.55 3.75, 14.56 3.01, 22.55 1.99 C30.54 0.97, 47.08 -0.46, 52.29 -0.94 C57.5 -1.43, 53.87 -1.33, 53.82 -0.93" stroke="none" stroke-width="0" fill="#fff"></path><path d="M64.46 0.81 C72.54 1.54, 80.74 3.98, 84.13 5.78 C87.53 7.58, 87.74 9.73, 84.81 11.62 C81.89 13.5, 74.57 16.23, 66.57 17.1 C58.57 17.97, 46.19 17.32, 36.84 16.82 C27.49 16.31, 16.7 15.37, 10.47 14.07 C4.24 12.78, -0.33 10.72, -0.53 9.04 C-0.72 7.36, 3.45 5.5, 9.3 3.98 C15.15 2.47, 24.93 0.35, 34.58 -0.06 C44.23 -0.47, 61.69 1.33, 67.2 1.52 C72.72 1.72, 68.01 0.86, 67.67 1.1 M29.61 0.24 C37.71 -0.45, 50.67 -0.78, 59.31 0.12 C67.96 1.03, 76.8 3.84, 81.49 5.65 C86.18 7.46, 88.84 9.37, 87.44 10.99 C86.04 12.61, 80.5 14.12, 73.1 15.37 C65.69 16.61, 52.55 18.39, 43.02 18.48 C33.49 18.58, 23.04 17.04, 15.92 15.92 C8.8 14.8, 1.94 13.86, 0.31 11.76 C-1.32 9.65, 1.3 5.07, 6.13 3.29 C10.96 1.51, 25.5 1.47, 29.3 1.1 C33.11 0.73, 28.98 1.12, 28.97 1.08" stroke="#0a11d3" stroke-width="1" fill="none"></path></g><g stroke-linecap="round" transform="translate(166.61849015747475 311.85395488115296) rotate(0 6.423028523489904 6.970952181208048)"><path d="M7.31 0.18 C8.6 0.12, 10.68 0.62, 11.75 1.78 C12.82 2.94, 13.9 5.5, 13.74 7.16 C13.59 8.81, 11.81 10.53, 10.81 11.72 C9.81 12.91, 8.8 13.92, 7.74 14.31 C6.69 14.7, 5.53 14.63, 4.49 14.06 C3.45 13.49, 2.1 12.36, 1.49 10.91 C0.88 9.46, 0.8 6.91, 0.85 5.37 C0.89 3.83, 0.72 2.45, 1.75 1.67 C2.79 0.88, 5.96 0.8, 7.07 0.66 C8.17 0.52, 8.26 0.71, 8.38 0.83 M4.16 0.09 C5.49 -0.34, 8.14 0.37, 9.29 0.94 C10.44 1.5, 10.28 2.08, 11.06 3.45 C11.84 4.83, 13.87 7.7, 13.96 9.17 C14.05 10.64, 12.64 11.67, 11.6 12.29 C10.56 12.91, 9.06 12.93, 7.7 12.88 C6.33 12.82, 4.82 12.6, 3.41 11.98 C2.01 11.36, -0.17 10.77, -0.73 9.17 C-1.29 7.57, -0.92 4.04, 0.06 2.36 C1.03 0.69, 4.46 -0.64, 5.13 -0.88 C5.8 -1.11, 4.36 0.86, 4.09 0.95" stroke="none" stroke-width="0" fill="#fff"></path><path d="M7.01 0.29 C8.22 0.46, 9.68 1.15, 10.59 2.35 C11.51 3.56, 12.47 6.15, 12.48 7.51 C12.49 8.87, 11.6 9.57, 10.68 10.5 C9.77 11.44, 8.31 12.69, 6.99 13.11 C5.68 13.52, 3.9 13.48, 2.79 12.98 C1.69 12.48, 0.82 11.52, 0.37 10.11 C-0.09 8.69, -0.5 5.97, 0.07 4.49 C0.65 3.02, 2.45 2.05, 3.82 1.27 C5.19 0.49, 7.2 -0.31, 8.29 -0.19 C9.39 -0.07, 10.5 1.64, 10.38 1.96 M5.58 -0.24 C6.65 -0.38, 7.92 1.15, 9.12 2.01 C10.33 2.87, 12.05 3.77, 12.8 4.9 C13.54 6.03, 14.24 7.33, 13.61 8.78 C12.98 10.23, 10.32 12.71, 9.02 13.6 C7.72 14.5, 7.1 14.24, 5.81 14.15 C4.53 14.05, 2.24 14.37, 1.32 13.03 C0.4 11.69, 0.21 7.76, 0.29 6.13 C0.38 4.51, 1.07 4.23, 1.85 3.29 C2.62 2.36, 4.55 1.13, 4.92 0.55 C5.28 -0.03, 4.13 -0.35, 4.05 -0.19" stroke="#0a11d3" stroke-width="1" fill="none"></path></g><g stroke-linecap="round" transform="translate(166.61849015747475 342.4564087402134) rotate(0 6.423028523489904 6.970952181208048)"><path d="M8.07 -0.17 C9.47 0.04, 11.43 1.82, 12.08 3.09 C12.72 4.36, 12.1 5.99, 11.94 7.45 C11.78 8.9, 11.7 10.64, 11.14 11.82 C10.58 13, 9.7 14.15, 8.57 14.53 C7.43 14.91, 5.58 14.9, 4.34 14.11 C3.1 13.32, 1.96 11.28, 1.13 9.81 C0.3 8.33, -0.9 6.62, -0.66 5.26 C-0.42 3.91, 0.92 2.38, 2.57 1.67 C4.23 0.96, 7.93 0.93, 9.27 1 C10.61 1.07, 10.82 2.07, 10.59 2.09 M6.44 0.56 C7.59 0.38, 7.88 0.26, 9.1 1.18 C10.33 2.1, 13.1 4.63, 13.81 6.07 C14.51 7.5, 13.87 8.78, 13.32 9.8 C12.77 10.82, 11.71 11.57, 10.49 12.17 C9.26 12.77, 7.65 13.41, 5.97 13.39 C4.29 13.36, 1.52 13.37, 0.4 12.03 C-0.73 10.69, -1.17 7.21, -0.78 5.34 C-0.39 3.47, 1.67 1.64, 2.73 0.82 C3.79 0, 5.24 0.77, 5.59 0.43 C5.94 0.09, 4.77 -1.42, 4.82 -1.21" stroke="none" stroke-width="0" fill="#fff"></path><path d="M4.99 0.04 C6.28 -0.14, 8.42 1.15, 9.56 1.83 C10.69 2.51, 11.46 2.92, 11.81 4.11 C12.16 5.31, 12.14 7.5, 11.64 9 C11.14 10.49, 9.91 12.18, 8.79 13.08 C7.67 13.97, 6.2 14.72, 4.91 14.36 C3.61 14, 1.72 12.17, 1.03 10.92 C0.34 9.66, 0.66 8.4, 0.75 6.86 C0.83 5.31, 0.4 2.63, 1.53 1.65 C2.66 0.68, 6.62 1.09, 7.51 0.98 C8.39 0.86, 7.04 0.9, 6.82 0.95 M5.52 1.26 C6.79 1.2, 9.12 1.22, 10.48 1.81 C11.83 2.4, 13.5 3.33, 13.66 4.8 C13.82 6.26, 12.12 9.13, 11.42 10.59 C10.71 12.04, 10.6 12.76, 9.44 13.51 C8.28 14.26, 5.8 15.67, 4.48 15.07 C3.15 14.47, 2.16 11.24, 1.5 9.9 C0.84 8.55, 0.5 8.25, 0.54 7.02 C0.58 5.78, 1.01 3.73, 1.71 2.49 C2.42 1.24, 4.21 -0.18, 4.77 -0.45 C5.33 -0.73, 4.91 0.77, 5.06 0.83" stroke="#0a11d3" stroke-width="1" fill="none"></path></g><g stroke-linecap="round" transform="translate(166.61849015747475 375.7172099147101) rotate(0 6.423028523489904 6.970952181208077)"><path d="M7.85 0.86 C8.87 1.05, 9.26 1.78, 10.02 2.78 C10.79 3.79, 12.03 5.43, 12.43 6.91 C12.84 8.39, 13.03 10.38, 12.46 11.67 C11.89 12.95, 10.36 14.34, 9.02 14.64 C7.67 14.94, 5.96 14.19, 4.4 13.47 C2.84 12.76, 0.44 11.64, -0.32 10.36 C-1.09 9.08, -0.76 7.23, -0.19 5.8 C0.39 4.37, 1.67 2.61, 3.13 1.79 C4.6 0.97, 7.68 1.03, 8.59 0.87 C9.5 0.71, 8.71 0.83, 8.58 0.83 M4.78 0.03 C6.16 -0.14, 9.71 1.35, 11.18 2.17 C12.65 3, 13.22 3.9, 13.61 4.99 C14.01 6.07, 14.1 7.37, 13.56 8.69 C13.03 10, 11.97 11.86, 10.39 12.87 C8.81 13.87, 5.75 15.2, 4.09 14.71 C2.44 14.23, 0.99 11.55, 0.46 9.97 C-0.06 8.39, 0.75 6.47, 0.94 5.24 C1.13 4, 0.97 3.66, 1.6 2.56 C2.24 1.47, 4.05 -1.1, 4.75 -1.34 C5.45 -1.58, 5.68 0.61, 5.8 1.14" stroke="none" stroke-width="0" fill="#fff"></path><path d="M6.75 0.74 C8.04 0.67, 9.4 0.48, 10.3 1.32 C11.2 2.16, 12.01 4.19, 12.14 5.8 C12.26 7.41, 11.77 9.55, 11.06 10.98 C10.35 12.4, 9.18 14, 7.89 14.34 C6.6 14.67, 4.43 13.69, 3.33 12.98 C2.23 12.26, 1.83 11.46, 1.29 10.04 C0.74 8.62, -0.35 5.78, 0.06 4.47 C0.47 3.16, 2.6 2.76, 3.76 2.16 C4.92 1.55, 6.32 1.04, 7 0.85 C7.67 0.65, 7.73 0.92, 7.79 0.98 M6 0.67 C7.5 0.14, 9.96 -0.03, 10.9 0.79 C11.85 1.62, 11.39 4.09, 11.68 5.6 C11.96 7.11, 13.03 8.39, 12.59 9.87 C12.15 11.35, 10.25 14.02, 9.05 14.48 C7.84 14.94, 6.55 13.08, 5.35 12.63 C4.15 12.19, 2.78 12.73, 1.87 11.8 C0.96 10.88, 0.1 8.75, -0.1 7.08 C-0.3 5.41, -0.16 2.86, 0.66 1.8 C1.48 0.74, 4.03 1.12, 4.82 0.72 C5.61 0.32, 5.22 -0.83, 5.4 -0.59" stroke="#0a11d3" stroke-width="1" fill="none"></path></g><g stroke-linecap="round"><g transform="translate(142.59375 116) rotate(0 0 83)"><path d="M0 0 C0 42.08, 0 84.16, 0 166 M0 0 C0 37.95, 0 75.89, 0 166" stroke="#1e1e1e" stroke-width="1" fill="none"></path></g><g transform="translate(142.59375 116) rotate(0 0 83)"><path d="M0 166 L-6.34 152.41 L6.34 152.41 L0 166" stroke="none" stroke-width="0" fill="#1e1e1e" fill-rule="evenodd"></path><path d="M0 166 C-1.61 162.55, -3.21 159.11, -6.34 152.41 M0 166 C-1.45 162.89, -2.9 159.78, -6.34 152.41 M-6.34 152.41 C-3.5 152.41, -0.66 152.41, 6.34 152.41 M-6.34 152.41 C-1.33 152.41, 3.69 152.41, 6.34 152.41 M6.34 152.41 C3.84 157.76, 1.35 163.11, 0 166 M6.34 152.41 C4.65 156.02, 2.97 159.64, 0 166 M0 166 C0 166, 0 166, 0 166 M0 166 C0 166, 0 166, 0 166" stroke="#1e1e1e" stroke-width="1" fill="none"></path></g></g><mask></mask><g transform="translate(82.59375 414) rotate(0 58.59375 12)"><text x="58.59375" y="0" font-family="Cascadia, Segoe UI Emoji" font-size="20px" fill="#1971c2" text-anchor="middle" style="white-space: pre;" direction="ltr" dominant-baseline="text-before-edge">PostgreSQL</text></g><g stroke-linecap="round" transform="translate(386.59375 291) rotate(0 111 48)"><path d="M0 0 C60.28 0, 120.56 0, 222 0 M0 0 C86.83 0, 173.66 0, 222 0 M222 0 C222 19.61, 222 39.23, 222 96 M222 0 C222 36.52, 222 73.04, 222 96 M222 96 C159.84 96, 97.69 96, 0 96 M222 96 C163.87 96, 105.75 96, 0 96 M0 96 C0 59.37, 0 22.74, 0 0 M0 96 C0 65.61, 0 35.22, 0 0" stroke="#1e1e1e" stroke-width="1" fill="none"></path></g><g transform="translate(397.984375 327) rotate(0 99.609375 12)"><text x="99.609375" y="0" font-family="Cascadia, Segoe UI Emoji" font-size="20px" fill="#1e1e1e" text-anchor="middle" style="white-space: pre;" direction="ltr" dominant-baseline="text-before-edge">Statistic service</text></g><g stroke-linecap="round"><g transform="translate(384.59375 339) rotate(0 -98.5 0)"><path d="M0 0 C-40.66 0, -81.33 0, -197 0 M0 0 C-41.83 0, -83.66 0, -197 0" stroke="#1e1e1e" stroke-width="1" fill="none"></path></g><g transform="translate(384.59375 339) rotate(0 -98.5 0)"><path d="M-197 0 L-183.41 -6.34 L-183.41 6.34 L-197 0" stroke="none" stroke-width="0" fill="#1e1e1e" fill-rule="evenodd"></path><path d="M-197 0 C-194.19 -1.31, -191.39 -2.62, -183.41 -6.34 M-197 0 C-194.11 -1.35, -191.23 -2.69, -183.41 -6.34 M-183.41 -6.34 C-183.41 -3.41, -183.41 -0.48, -183.41 6.34 M-183.41 -6.34 C-183.41 -1.6, -183.41 3.14, -183.41 6.34 M-183.41 6.34 C-186.33 4.98, -189.25 3.61, -197 0 M-183.41 6.34 C-186.38 4.95, -189.35 3.57, -197 0 M-197 0 C-197 0, -197 0, -197 0 M-197 0 C-197 0, -197 0, -197 0" stroke="#1e1e1e" stroke-width="1" fill="none"></path></g></g><mask></mask><g transform="translate(10 159) rotate(0 58.59375 24)"><text x="58.59375" y="0" font-family="Cascadia, Segoe UI Emoji" font-size="20px" fill="#1e1e1e" text-anchor="middle" style="white-space: pre;" direction="ltr" dominant-baseline="text-before-edge">CRUD</text><text x="58.59375" y="24" font-family="Cascadia, Segoe UI Emoji" font-size="20px" fill="#1e1e1e" text-anchor="middle" style="white-space: pre;" direction="ltr" dominant-baseline="text-before-edge">operations</text></g><g transform="translate(225.28125 285) rotate(0 70.3125 24)"><text x="70.3125" y="0" font-family="Cascadia, Segoe UI Emoji" font-size="20px" fill="#1e1e1e" text-anchor="middle" style="white-space: pre;" direction="ltr" dominant-baseline="text-before-edge">Select users</text><text x="70.3125" y="24" font-family="Cascadia, Segoe UI Emoji" font-size="20px" fill="#1e1e1e" text-anchor="middle" style="white-space: pre;" direction="ltr" dominant-baseline="text-before-edge">statistic</text></g><g stroke-linecap="round" transform="translate(1040.59375 153) rotate(0 111 48)"><path d="M0 0 C46.83 0, 93.67 0, 222 0 M0 0 C87.3 0, 174.59 0, 222 0 M222 0 C222 32.2, 222 64.39, 222 96 M222 0 C222 34.82, 222 69.63, 222 96 M222 96 C171.07 96, 120.14 96, 0 96 M222 96 C170.53 96, 119.07 96, 0 96 M0 96 C0 61.69, 0 27.38, 0 0 M0 96 C0 76.73, 0 57.47, 0 0" stroke="#1e1e1e" stroke-width="1" fill="none"></path></g><g transform="translate(1075.421875 177) rotate(0 76.171875 24)"><text x="76.171875" y="0" font-family="Cascadia, Segoe UI Emoji" font-size="20px" fill="#1e1e1e" text-anchor="middle" style="white-space: pre;" direction="ltr" dominant-baseline="text-before-edge">Email sending</text><text x="76.171875" y="24" font-family="Cascadia, Segoe UI Emoji" font-size="20px" fill="#1e1e1e" text-anchor="middle" style="white-space: pre;" direction="ltr" dominant-baseline="text-before-edge">service</text></g><g stroke-linecap="round"><g transform="translate(735.3917066432496 140.08433916973036) rotate(89.99999999999994 26.019462357681505 65.16096963788206)" fill-rule="evenodd"><path d="M2.08 -4.82 C2.08 -4.82, 2.08 -4.82, 2.08 -4.82 M2.08 -4.82 C2.08 -4.82, 2.08 -4.82, 2.08 -4.82 M3.37 1.17 C5.27 -2.75, 11.47 -7.79, 12.41 -10.62 M1.68 1.78 C4.66 -1.18, 6.85 -4.69, 11.77 -10.01 M-0.09 9.9 C7.98 1.51, 14.61 -8.17, 16.71 -12.14 M1.03 7.72 C6.58 3.88, 11.18 -1.31, 17.8 -10.85 M3.47 12.25 C11.24 6.6, 17.31 -3.21, 24.37 -12.63 M2.49 14.39 C10.28 4.41, 17.97 -3.41, 25.12 -12.76 M2.96 19.62 C8.75 12.99, 12.26 7.79, 25.99 -10.81 M2.01 19.7 C10.32 10.08, 19.94 0.52, 28.85 -9.99 M3.35 27.49 C9.3 18.47, 16.5 8.3, 30.67 -7.63 M3.08 26.15 C8.9 17.93, 15.53 11.16, 32.72 -9.38 M3.63 30.62 C12.04 20.2, 26.35 4.72, 37.6 -8.76 M2.07 32.33 C10.2 22.75, 18.14 12.63, 36.29 -8.57 M0.77 38.25 C10.34 27.32, 20.59 17, 43.4 -8.64 M2.11 38.24 C13.52 25.45, 25.44 11.57, 42.18 -7.91 M3.25 45.41 C19.12 24.42, 36.26 3.62, 46.25 -6.18 M2.45 44.71 C11.51 34.06, 20.54 24.31, 46.08 -8.05 M3 48.11 C13.66 33.67, 30.48 18.9, 47.97 -2.75 M2.34 50.73 C14.88 33.27, 30.27 17.12, 48.74 -3.81 M0.99 54.64 C19.23 39.62, 31.21 20.66, 52.67 -2.05 M2.43 56.88 C18.45 37.01, 35.24 17.24, 52.41 -1.89 M52.61 -1.97 C52.61 -1.97, 52.61 -1.97, 52.61 -1.97 M52.61 -1.97 C52.61 -1.97, 52.61 -1.97, 52.61 -1.97 M2.21 62.69 C12.03 48.21, 23.64 37.73, 52.98 4.32 M1.63 61.39 C15.48 45.92, 29.58 31.14, 53.01 4.98 M3.87 66.47 C15.74 54.74, 27.21 41.54, 51.17 11.35 M1.37 68.21 C16.01 53, 27.82 37.46, 52.04 10.51 M0.64 74.02 C13.85 60.6, 26.17 48.7, 54.27 18.15 M2.3 73.72 C16.55 57.97, 31.81 39.91, 52.81 16.92 M2.79 80.41 C18.47 64.51, 29.82 46.3, 52.88 23.61 M2.41 79.66 C19.91 59.63, 36.92 38.68, 52.51 22.1 M2.7 87.74 C16.99 69.82, 31.28 55.93, 53.07 27.63 M1.48 86.81 C14.81 72.33, 26.44 58.37, 52.34 28.11 M2.29 93.06 C18.43 72.93, 32.4 54.79, 53.92 34.36 M2.32 93.14 C11.88 79.78, 21.68 68.17, 52.87 34.57 M2.42 99.75 C19.61 79.11, 33.78 63.48, 50.85 40.22 M2.08 99.18 C21.89 77.32, 39.63 53.6, 51.26 40.8 M2.99 104.63 C16.03 89.62, 32.74 72.28, 52.37 45.38 M2.18 103.4 C13.09 91.59, 23.53 80.38, 51.95 47.4 M0.37 109.33 C15.23 94.09, 32.68 76.87, 52.93 53.26 M1.68 111.58 C17.85 92.3, 34.9 73.99, 51.28 53.94 M3.41 115.45 C12.13 104.92, 21.44 92.39, 52.18 58.56 M3.13 116.15 C17.23 100.71, 31.15 84.29, 52.69 59 M2.98 123.88 C18.16 104.34, 37.46 82.38, 52.53 66.47 M1.97 123.64 C18.93 102.81, 36.14 82.86, 52.18 65.64 M3.26 130.74 C16.87 112.2, 28.64 95.96, 50.49 72.69 M1.72 128.75 C20.3 107.61, 38.23 86.35, 51.42 71.45 M2.58 134.93 C12 122.89, 23.42 108.15, 53.41 78.92 M2.67 133.97 C13.2 122.73, 23.95 110.68, 52.48 78.22 M5.41 137.82 C19.44 120.71, 34.8 103.54, 52.32 84.4 M5.8 137.49 C23.1 116.7, 40.69 98.44, 52.47 83.55 M7.26 139.33 C20.66 123.36, 34.64 110.21, 53.2 89.84 M9.49 139.32 C19.35 128.79, 28.92 117.94, 52.76 88.95 M13.96 141.38 C28.32 123.77, 42.5 107.33, 50.57 96.74 M12.69 140.88 C23.52 130.17, 32.51 118.23, 52.32 95.26 M17.82 140.64 C31.07 129.01, 42.36 114.19, 50.76 103.32 M16.99 141.92 C27.68 130.6, 38.31 117.2, 52.99 102.76 M20.32 145.29 C28.2 136.81, 33.74 127.11, 52.7 108.09 M21.16 143.37 C29.7 134.33, 38.71 124.85, 52.12 108.75 M27.54 143.5 C38.24 130.85, 45.86 123.79, 52.76 113.31 M28.44 141.95 C37.78 132.14, 45.3 121.25, 53.2 115.27 M34.98 139.49 C40.58 133.81, 45.65 128.16, 52.03 120.98 M33.28 140.33 C41.65 134.13, 48.34 124.51, 53.11 119.11 M39.6 140.71 C44.67 136.08, 48.87 133.63, 53.75 128.06 M39.21 140.51 C43.32 136.49, 47.76 130.41, 51.53 127.25 M45.52 140.22 C47.63 138.22, 49.52 135.41, 53.35 129.14 M44.73 141.61 C47.21 138.49, 49.82 135.6, 53.94 130.75" stroke="#ffec99" stroke-width="0.5" fill="none"></path><path d="M0.52 0.32 C0.78 19.59, 0.82 94.72, 0.9 116.49 C0.97 138.27, 0.68 127.69, 0.98 130.98 C1.27 134.28, 0.63 134.79, 2.66 136.28 C4.7 137.76, 8.9 138.89, 13.19 139.91 C17.47 140.92, 23.25 142.57, 28.36 142.37 C33.47 142.16, 40.11 139.97, 43.85 138.68 C47.58 137.38, 49.59 136.02, 50.79 134.6 C51.99 133.18, 50.95 132.68, 51.03 130.15 C51.12 127.63, 51.12 139.6, 51.32 119.44 C51.51 99.28, 51.99 29.1, 52.19 9.22 C52.39 -10.67, 53.01 2.71, 52.51 0.12 C52.02 -2.47, 50.89 -4.84, 49.23 -6.3 C47.58 -7.76, 46.36 -7.78, 42.56 -8.63 C38.76 -9.48, 31.36 -11.22, 26.44 -11.39 C21.52 -11.57, 17.06 -10.91, 13.07 -9.7 C9.08 -8.48, 4.55 -5.67, 2.49 -4.11 C0.43 -2.55, 0.99 -1.1, 0.71 -0.33 C0.44 0.45, 1.06 0.33, 0.83 0.54 M-0.66 -0.55 C-0.44 18.81, 0.1 96.25, 0.33 117.86 C0.56 139.47, 0.3 125.8, 0.72 129.09 C1.15 132.38, 0.96 135.8, 2.89 137.6 C4.82 139.39, 8.4 139.23, 12.31 139.87 C16.23 140.5, 21.54 141.31, 26.37 141.39 C31.2 141.48, 37.41 141.53, 41.29 140.39 C45.17 139.25, 47.8 136.4, 49.66 134.55 C51.52 132.7, 52.13 131.8, 52.45 129.29 C52.77 126.78, 51.56 139.4, 51.57 119.5 C51.59 99.6, 52.55 29.81, 52.52 9.9 C52.5 -10.02, 51.88 2.85, 51.43 0 C50.98 -2.84, 51.34 -5.78, 49.84 -7.17 C48.34 -8.57, 46.8 -7.64, 42.44 -8.35 C38.09 -9.07, 28.97 -10.92, 23.69 -11.46 C18.42 -12.01, 14.51 -12.42, 10.79 -11.6 C7.07 -10.78, 3.2 -8.46, 1.37 -6.55 C-0.46 -4.63, 0.06 -1.37, -0.18 -0.1 C-0.43 1.17, -0.06 1.12, -0.13 1.08" stroke="#f08c00" stroke-width="1" fill="none"></path></g></g><mask></mask><g stroke-linecap="round"><g transform="translate(710.8642962388926 199.18929572729553) rotate(89.99999999999994 25.661453372036704 5.579978263538123)"><path d="M0.72 -0.33 C1.02 0.61, 1.25 4.25, 2.31 5.92 C3.36 7.6, 4.8 8.86, 7.06 9.72 C9.33 10.57, 12.54 10.64, 15.9 11.06 C19.27 11.48, 22.98 12.53, 27.27 12.24 C31.57 11.95, 38.09 10.52, 41.67 9.33 C45.26 8.13, 47.45 6.56, 48.78 5.08 C50.1 3.59, 49.46 1.18, 49.62 0.4 M-0.36 -1.54 C-0.18 -0.97, 0.76 2.73, 1.87 4.26 C2.97 5.78, 4.41 6.35, 6.28 7.59 C8.15 8.84, 9.79 10.88, 13.09 11.73 C16.39 12.58, 21.6 12.76, 26.06 12.69 C30.53 12.63, 36.01 12.79, 39.88 11.34 C43.76 9.9, 47.35 5.82, 49.31 4.02 C51.28 2.23, 51.36 1.33, 51.68 0.58" stroke="#f08c00" stroke-width="1" fill="none"></path></g></g><mask></mask><g stroke-linecap="round"><g transform="translate(756.2900773873343 199.52838085229564) rotate(89.99999999999994 25.665764428026932 5.545224473962293)"><path d="M0.97 0.86 C1.07 1.66, 0.09 3.5, 1.3 4.47 C2.51 5.43, 5.9 5.78, 8.22 6.64 C10.54 7.5, 11.99 9.33, 15.22 9.65 C18.45 9.97, 23.37 8.68, 27.58 8.56 C31.79 8.44, 37.11 9.61, 40.48 8.95 C43.84 8.29, 46.23 6.02, 47.75 4.61 C49.27 3.2, 49.13 1.45, 49.6 0.51 M0.02 0.27 C-0.11 0.73, -1.01 1.35, 0.33 2.56 C1.67 3.77, 5.48 6.15, 8.05 7.52 C10.61 8.9, 12.64 10.68, 15.73 10.81 C18.81 10.95, 22.22 8.78, 26.56 8.35 C30.91 7.91, 38.24 8.97, 41.78 8.2 C45.32 7.44, 46.16 5.03, 47.81 3.78 C49.47 2.53, 51.54 1.16, 51.72 0.68" stroke="#f08c00" stroke-width="1" fill="none"></path></g></g><mask></mask><g stroke-linecap="round" transform="translate(802.8948505194494 193.67518493140744) rotate(89.99999999999994 25.639064267762706 11.398576284497977)"><path d="M20.45 0.35 C25.52 -0.2, 34.27 0.18, 39.14 1.33 C44.01 2.48, 47.98 5.13, 49.67 7.27 C51.36 9.42, 51.19 11.93, 49.28 14.22 C47.36 16.51, 42.77 19.57, 38.19 21.01 C33.61 22.46, 27.1 23.28, 21.79 22.88 C16.49 22.49, 10.1 20.64, 6.37 18.64 C2.64 16.64, -0.6 13.15, -0.6 10.87 C-0.6 8.6, 2.18 6.92, 6.38 5.01 C10.58 3.09, 21.31 0.02, 24.59 -0.62 C27.88 -1.25, 26.17 0.83, 26.08 1.2 M26.45 -0.64 C31.88 -0.58, 39.3 0.49, 43.28 2.19 C47.25 3.88, 49.45 6.77, 50.28 9.55 C51.11 12.32, 50.86 16.52, 48.26 18.82 C45.65 21.11, 40.27 22.6, 34.65 23.31 C29.03 24.02, 19.75 24.11, 14.55 23.1 C9.35 22.1, 6 19.46, 3.45 17.28 C0.89 15.11, -1.73 12.31, -0.79 10.05 C0.14 7.79, 4.27 5.35, 9.06 3.72 C13.84 2.1, 24.91 0.86, 27.91 0.29 C30.91 -0.28, 27.33 0.08, 27.05 0.33" stroke="none" stroke-width="0" fill="#ffec99"></path><path d="M37.45 1.99 C42.19 2.82, 46.12 4.83, 48.31 6.8 C50.5 8.78, 51.92 11.62, 50.6 13.85 C49.27 16.08, 44.92 18.69, 40.36 20.17 C35.8 21.65, 28.92 22.81, 23.25 22.73 C17.59 22.65, 10.14 21.37, 6.35 19.67 C2.56 17.98, 0.72 14.93, 0.52 12.55 C0.31 10.18, 1.77 7.33, 5.13 5.44 C8.49 3.55, 14.57 1.64, 20.69 1.21 C26.82 0.78, 37.86 2.4, 41.88 2.86 C45.9 3.32, 45.09 3.83, 44.83 4 M21.98 1.24 C26.88 0.84, 34.65 1.21, 39.42 2.58 C44.2 3.94, 49.14 7.4, 50.64 9.43 C52.14 11.46, 50.81 12.53, 48.42 14.77 C46.03 17, 41.19 21.79, 36.31 22.85 C31.43 23.91, 24.15 21.99, 19.13 21.13 C14.11 20.27, 9.17 19.28, 6.18 17.68 C3.19 16.08, 0.89 13.81, 1.19 11.52 C1.48 9.23, 4.3 5.87, 7.95 3.94 C11.6 2, 20.51 0.71, 23.09 -0.06 C25.67 -0.84, 23.27 -0.73, 23.41 -0.69" stroke="#f08c00" stroke-width="1" fill="none"></path></g><g transform="translate(711.71875 243) rotate(0 46.875 24)"><text x="46.875" y="0" font-family="Cascadia, Segoe UI Emoji" font-size="20px" fill="#f08c00" text-anchor="middle" style="white-space: pre;" direction="ltr" dominant-baseline="text-before-edge">RabbitMQ</text><text x="46.875" y="24" font-family="Cascadia, Segoe UI Emoji" font-size="20px" fill="#f08c00" text-anchor="middle" style="white-space: pre;" direction="ltr" dominant-baseline="text-before-edge">queue</text></g><g stroke-linecap="round"><g transform="translate(583.59375 117) rotate(0 47 45.5)"><path d="M0 0 C0 25.78, 0 51.55, 0 91 M0 0 C0 22.62, 0 45.23, 0 91 M0 91 C19.12 91, 38.23 91, 94 91 M0 91 C22.58 91, 45.16 91, 94 91" stroke="#1e1e1e" stroke-width="1" fill="none"></path></g><g transform="translate(583.59375 117) rotate(0 47 45.5)"><path d="M94 91 L80.41 97.34 L80.41 84.66 L94 91" stroke="none" stroke-width="0" fill="#1e1e1e" fill-rule="evenodd"></path><path d="M94 91 C90.15 92.8, 86.3 94.59, 80.41 97.34 M94 91 C90.62 92.58, 87.24 94.15, 80.41 97.34 M80.41 97.34 C80.41 94.76, 80.41 92.18, 80.41 84.66 M80.41 97.34 C80.41 94.29, 80.41 91.25, 80.41 84.66 M80.41 84.66 C84.14 86.4, 87.88 88.15, 94 91 M80.41 84.66 C85 86.8, 89.59 88.94, 94 91 M94 91 C94 91, 94 91, 94 91 M94 91 C94 91, 94 91, 94 91" stroke="#1e1e1e" stroke-width="1" fill="none"></path></g></g><mask></mask><g stroke-linecap="round"><g transform="translate(541.59375 291) rotate(0 67.99999999999989 -41)"><path d="M0 0 C0 -31.76, 0 -63.51, 0 -82 M0 0 C0 -20.93, 0 -41.86, 0 -82 M0 -82 C38.09 -82, 76.18 -82, 136 -82 M0 -82 C48.53 -82, 97.07 -82, 136 -82" stroke="#1e1e1e" stroke-width="1" fill="none"></path></g><g transform="translate(541.59375 291) rotate(0 67.99999999999989 -41)"><path d="M136 -82 L122.41 -75.66 L122.41 -88.34 L136 -82" stroke="none" stroke-width="0" fill="#1e1e1e" fill-rule="evenodd"></path><path d="M136 -82 C130.74 -79.54, 125.47 -77.09, 122.41 -75.66 M136 -82 C132.53 -80.38, 129.06 -78.76, 122.41 -75.66 M122.41 -75.66 C122.41 -79.21, 122.41 -82.76, 122.41 -88.34 M122.41 -75.66 C122.41 -80.19, 122.41 -84.71, 122.41 -88.34 M122.41 -88.34 C127.7 -85.87, 133 -83.4, 136 -82 M122.41 -88.34 C127.57 -85.93, 132.74 -83.52, 136 -82 M136 -82 C136 -82, 136 -82, 136 -82 M136 -82 C136 -82, 136 -82, 136 -82" stroke="#1e1e1e" stroke-width="1" fill="none"></path></g></g><mask></mask><g transform="translate(376.5625 227) rotate(0 82.03125 24)"><text x="82.03125" y="0" font-family="Cascadia, Segoe UI Emoji" font-size="20px" fill="#1e1e1e" text-anchor="middle" style="white-space: pre;" direction="ltr" dominant-baseline="text-before-edge">Send statistic</text><text x="82.03125" y="24" font-family="Cascadia, Segoe UI Emoji" font-size="20px" fill="#1e1e1e" text-anchor="middle" style="white-space: pre;" direction="ltr" dominant-baseline="text-before-edge">every month</text></g><g transform="translate(434.28125 126) rotate(0 70.3125 24)"><text x="70.3125" y="0" font-family="Cascadia, Segoe UI Emoji" font-size="20px" fill="#1e1e1e" text-anchor="middle" style="white-space: pre;" direction="ltr" dominant-baseline="text-before-edge">Send welcome</text><text x="70.3125" y="24" font-family="Cascadia, Segoe UI Emoji" font-size="20px" fill="#1e1e1e" text-anchor="middle" style="white-space: pre;" direction="ltr" dominant-baseline="text-before-edge">email</text></g><g stroke-linecap="round"><g transform="translate(1039.59375 204.00000000000006) rotate(0 -97.00046824796664 2.842170943040401e-14)"><path d="M0 0 C-68.68 0, -137.36 0, -194 0 M0 0 C-70.5 0, -141.01 0, -194 0" stroke="#1e1e1e" stroke-width="1" fill="none"></path></g><g transform="translate(1039.59375 204.00000000000006) rotate(0 -97.00046824796664 2.842170943040401e-14)"><path d="M-194 0 L-180.41 -6.34 L-180.41 6.34 L-194 0" stroke="none" stroke-width="0" fill="#1e1e1e" fill-rule="evenodd"></path><path d="M-194 0 C-189.19 -2.24, -184.38 -4.49, -180.41 -6.34 M-194 0 C-189.06 -2.3, -184.12 -4.61, -180.41 -6.34 M-180.41 -6.34 C-180.41 -3.39, -180.41 -0.43, -180.41 6.34 M-180.41 -6.34 C-180.41 -3.28, -180.41 -0.21, -180.41 6.34 M-180.41 6.34 C-183.39 4.95, -186.37 3.56, -194 0 M-180.41 6.34 C-184.52 4.42, -188.64 2.5, -194 0 M-194 0 C-194 0, -194 0, -194 0 M-194 0 C-194 0, -194 0, -194 0" stroke="#1e1e1e" stroke-width="1" fill="none"></path></g></g><mask></mask><g transform="translate(813.265625 135) rotate(0 111.328125 24)"><text x="111.328125" y="0" font-family="Cascadia, Segoe UI Emoji" font-size="20px" fill="#1e1e1e" text-anchor="middle" style="white-space: pre;" direction="ltr" dominant-baseline="text-before-edge">Read queue and send</text><text x="111.328125" y="24" font-family="Cascadia, Segoe UI Emoji" font-size="20px" fill="#1e1e1e" text-anchor="middle" style="white-space: pre;" direction="ltr" dominant-baseline="text-before-edge">emails to users</text></g><g transform="translate(273.703125 10) rotate(0 87.890625 24)"><text x="87.890625" y="0" font-family="Cascadia, Segoe UI Emoji" font-size="20px" fill="#1e1e1e" text-anchor="middle" style="white-space: pre;" direction="ltr" dominant-baseline="text-before-edge">Verify user,</text><text x="87.890625" y="24" font-family="Cascadia, Segoe UI Emoji" font-size="20px" fill="#1e1e1e" text-anchor="middle" style="white-space: pre;" direction="ltr" dominant-baseline="text-before-edge">create new user</text></g></svg>